<?xml version="1.0" encoding="UTF-8" standalone="no"?>
<!DOCTYPE svg PUBLIC "-//W3C//DTD SVG 1.1//EN" "http://www.w3.org/Graphics/SVG/1.1/DTD/svg11.dtd">
<svg width="100%" height="100%" viewBox="0 0 3000 3000" version="1.1" xmlns="http://www.w3.org/2000/svg" xmlns:xlink="http://www.w3.org/1999/xlink" xml:space="preserve" xmlns:serif="http://www.serif.com/" style="fill-rule:evenodd;clip-rule:evenodd;stroke-linejoin:round;stroke-miterlimit:2;">
    <g transform="matrix(1.510319,0,0,1.639653,-763.333622,-960.730318)">
        <path d="M1774.371,959.074L2140.915,959.074C2143.641,978.821 2145.049,998.987 2145.049,1019.479C2145.049,1045.711 2142.741,1071.408 2138.316,1096.379C2137.958,1098.397 2137.587,1100.411 2137.202,1102.42C2136.977,1103.592 2136.747,1104.762 2136.513,1105.931C2114.515,1215.767 2051.425,1310.835 1963.984,1374.394C2065.328,1447.464 2131.349,1566.53 2131.349,1700.895C2131.349,1768.989 2114.392,1833.155 2084.475,1889.395L2023.882,1974.477C1999.626,2000.598 1971.944,2023.496 1941.555,2042.451L1469.553,2042.451L1928.94,1397.397C1927.908,1398.006 1926.873,1398.611 1925.836,1399.212C1924.055,1400.243 1922.267,1401.262 1920.471,1402.269C1857.179,1437.741 1784.212,1457.97 1706.558,1457.97C1684.399,1457.97 1662.621,1456.323 1641.341,1453.144C1640.731,1453.053 1640.121,1452.961 1639.511,1452.867C1638.301,1452.681 1637.093,1452.49 1635.887,1452.294C1576.867,1442.715 1521.784,1421.337 1473.138,1390.663C1471.728,1389.773 1470.323,1388.876 1468.924,1387.972L1774.371,959.074Z"/>
    </g>
    <g transform="matrix(1.510319,0,0,1.639653,-763.333622,-960.730318)">
        <path d="M1048.445,959.074L1530.302,959.074L1074.42,1599.207C1138.234,1562.941 1212.018,1542.225 1290.602,1542.225C1312.703,1542.225 1334.424,1543.863 1355.651,1547.025C1356.188,1547.105 1356.725,1547.186 1357.261,1547.268C1416.69,1556.348 1472.209,1577.377 1521.287,1607.822C1523.106,1608.95 1524.917,1610.092 1526.719,1611.246L1219.628,2042.451L856.431,2042.451C853.583,2022.279 852.111,2001.668 852.111,1980.716C852.111,1953.589 854.579,1927.035 859.304,1901.265C879.865,1789.112 943.157,1691.82 1031.654,1626.912C928.91,1554.004 861.811,1434.096 861.811,1298.639C861.811,1155.936 936.281,1030.489 1048.445,959.074Z"/>
    </g>
</svg>
